<?xml version="1.0" encoding="UTF-8" standalone="no"?>
<svg
   xmlns:dc="http://purl.org/dc/elements/1.1/"
   xmlns:cc="http://creativecommons.org/ns#"
   xmlns:rdf="http://www.w3.org/1999/02/22-rdf-syntax-ns#"
   xmlns:svg="http://www.w3.org/2000/svg"
   xmlns="http://www.w3.org/2000/svg"
   xmlns:sodipodi="http://sodipodi.sourceforge.net/DTD/sodipodi-0.dtd"
   xmlns:inkscape="http://www.inkscape.org/namespaces/inkscape"
   sodipodi:docname="telegram.svg"
   inkscape:version="1.0 (4035a4fb49, 2020-05-01)"
   id="svg1146"
   version="1.1"
   viewBox="0 0 132.29166 132.29167"
   height="500"
   width="500">
  <defs
     id="defs1140" />
  <sodipodi:namedview
     inkscape:window-maximized="1"
     inkscape:window-y="-8"
     inkscape:window-x="-8"
     inkscape:window-height="1009"
     inkscape:window-width="1920"
     units="px"
     showgrid="false"
     inkscape:document-rotation="0"
     inkscape:current-layer="g1722"
     inkscape:document-units="mm"
     inkscape:cy="241.18646"
     inkscape:cx="128.10735"
     inkscape:zoom="1.4"
     inkscape:pageshadow="2"
     inkscape:pageopacity="0.0"
     borderopacity="1.0"
     bordercolor="#666666"
     pagecolor="#ffffff"
     id="base" />
  <metadata
     id="metadata1143">
    <rdf:RDF>
      <cc:Work
         rdf:about="">
        <dc:format>image/svg+xml</dc:format>
        <dc:type
           rdf:resource="http://purl.org/dc/dcmitype/StillImage" />
        <dc:title />
      </cc:Work>
    </rdf:RDF>
  </metadata>
  <g
     id="layer1"
     inkscape:groupmode="layer"
     inkscape:label="Layer 1">
    <g
       transform="matrix(1.2925764,0,0,1.2925764,27.793629,8.2511078)"
       id="g1722">
      <path
         id="path1129"
         d="m 18.959227,76.450956 c 4.073033,-0.177591 7.500313,-5.361936 10.31395,-7.907981 0.762271,-0.689715 2.267182,-2.931402 3.37547,-2.867082 1.412772,0.08195 3.747145,2.545101 4.875633,3.391595 4.102872,3.07674 8.25982,6.082409 12.376725,9.140592 2.063341,1.532829 5.320521,4.078499 7.84144,1.893439 1.281934,-1.111084 1.642338,-3.015971 1.989418,-4.5882 0.730449,-3.306267 1.359049,-6.636353 2.10523,-9.938878 3.02797,-13.400803 5.541936,-26.917316 8.569906,-40.31812 0.856037,-3.788962 2.319696,-8.11388 2.368673,-12.001672 C 72.797682,11.542314 72.27685,9.5778995 70.528694,8.9068173 68.490086,8.1241827 66.421355,9.1734248 64.528041,9.9172324 60.598818,11.460982 56.659812,12.986752 52.713932,14.487751 36.686597,20.584487 20.697392,26.786534 4.7071896,32.980339 c -4.80121274,1.859696 -9.7083844,3.53468 -14.439501,5.566526 -1.4313406,0.614708 -4.0222126,1.81169 -3.6690386,3.774146 0.255366,1.419203 1.911881,2.028849 3.106497,2.437471 3.1602181,1.080894 6.3748006,2.014778 9.56379596,3.005667 2.18787324,0.67997 4.38814684,1.340436 6.56340404,2.058283 0.9834061,0.324421 2.3236704,0.995389 3.3754716,0.867875 1.0428714,-0.126586 2.1284774,-1.113532 3.0004654,-1.654166 2.261937,-1.40251 4.503252,-2.841584 6.750943,-4.267163 7.794306,-4.943559 15.606261,-9.865183 23.440756,-14.74499 3.696681,-2.302635 7.40052,-4.605269 11.06403,-6.960217 0.634412,-0.40787 3.30984,-2.415717 3.93114,-1.123095 0.486988,1.013017 -2.540269,3.078805 -3.181059,3.684136 -3.733394,3.525494 -7.681967,6.824637 -11.439036,10.32519 -5.241211,4.883181 -10.666699,9.569646 -15.939732,14.418699 -1.890832,1.73893 -5.183803,3.700077 -6.342343,6.016965 -0.877797,1.755611 -0.516827,5.162586 -0.603437,7.125986 -0.190373,4.30785 -0.894667,8.626949 -0.930319,12.939304 z"
         style="fill:#4fdfc2;fill-opacity:1;stroke:none;stroke-width:0.187526" />
    </g>
  </g>
</svg>
